# xmcd CD database file generated by OrangeCD 6.5
#
# Track frame offsets:
#	150
#	12612
#	25975
#	38437
#	55849
#	70738
#	81009
#	96546
#	106972
#	116216
#	141807
#	159311
#	172836
#
# Disc length: 2468 seconds
#
# Revision: 0
# Processed by: cddbd v1.5.2PL0 Copyright (c) Steve Scherf et al.
# Submitted via: OrangeCD 6.5
#
DISCID=a409a20d
DTITLE=The Byrds - Byrds
DYEAR=1900
DGENRE=Country Rock
TTITLE0=Full Circle
TTITLE1=Sweet Mary
TTITLE2=Changing Heart
TTITLE3=For Free
TTITLE4=Born To Rock 'N Roll
TTITLE5=Things Will Be Better
TTITLE6=Cowgirl In The Sand
TTITLE7=Long Live The King
TTITLE8=Borrowing Time
TTITLE9=Laughing
TTITLE10=See The Sky About To Rain
TTITLE11=Gene Clark - She's The Kind Of Girl
TTITLE12=Gene Clark - One In A Hundred
EXTD=
EXTT0=
EXTT1=
EXTT2=
EXTT3=
EXTT4=
EXTT5=
EXTT6=
EXTT7=
EXTT8=
EXTT9=
EXTT10=
EXTT11=
EXTT12=
PLAYORDER=
